<?xml version="1.0" standalone="no"?><!DOCTYPE svg PUBLIC "-//W3C//DTD SVG 1.1//EN" "http://www.w3.org/Graphics/SVG/1.1/DTD/svg11.dtd"><svg t="1491654644464" class="icon" style="" viewBox="0 0 1024 1024" version="1.1" xmlns="http://www.w3.org/2000/svg" p-id="8055" xmlns:xlink="http://www.w3.org/1999/xlink" width="128" height="128"><defs><style type="text/css"></style></defs><path d="M441.846154 401.230769l132.923077 0 0 438.153846-132.923077 0 0-438.153846Z" p-id="8056" fill="#ffffff"></path><path d="M441.846154 251.076923l132.923077 0 0 91.076923-132.923077 0 0-91.076923Z" p-id="8057" fill="#ffffff"></path><path d="M510.769231 0C227.692308 0 1.230769 228.923077 1.230769 512s228.923077 512 509.538462 512c283.076923 0 512-228.923077 512-512S793.846154 0 510.769231 0zM510.769231 925.538462C281.846154 925.538462 97.230769 738.461538 97.230769 512S281.846154 96 510.769231 96c228.923077 0 413.538462 184.615385 413.538462 413.538462S739.692308 925.538462 510.769231 925.538462z" p-id="8058" fill="#ffffff"></path></svg>