<?xml version="1.0" standalone="no"?><!DOCTYPE svg PUBLIC "-//W3C//DTD SVG 1.1//EN" "http://www.w3.org/Graphics/SVG/1.1/DTD/svg11.dtd"><svg t="1492011997011" class="icon" style="" viewBox="0 0 1024 1024" version="1.1" xmlns="http://www.w3.org/2000/svg" p-id="2411" xmlns:xlink="http://www.w3.org/1999/xlink" width="64" height="64"><defs><style type="text/css"></style></defs><path d="M319.2 729.8l1 0.9v1l1 1 1.9 5 2.1 1.9h8l201.1-389.4h335.5L769.7 543.6H478.4c-1.2 1.7-1.9 1.7-1.9 4v1.9c0 5.7 35.5 41.6 41.2 48.9 11.1 14.4 29.9 35.1 43 48 11.8 11.8 79 93.4 87.8 93.4h61.1c3.5 0 7.1-1.7 7.1-5v-1.9c0-8.3-100.2-109.4-112.2-127.1h168.2c16.4 0 28.7 3.7 34.3-7.7 4.7-9.4 9.7-18.3 14.4-27.8 9.2-18.6 19.8-36.4 29-55 11.3-22.8 114.5-218.5 114.5-221.9 0-4.2-5.6-6.1-10.1-6.1H508.5c-11.1 0-11 9-15.3 15.8L329.8 618.4l-1.6 0.3-2.4-5.4-0.5-1.7c-14.3-26.8-28.4-53.7-42.1-81.1-6.4-13-13.9-28-21.2-40.9-7.7-13.4-13.2-27.3-21.4-40.7-7.7-12.3-13-28.5-20.9-41.2-7.3-12.2-14.6-27.7-21.2-40.7-4.9-9.9-38.6-79.8-44.4-79.8H95c-12.5 0-14.4 16.9-19.7 25.2-5.6 9-10.6 21-15.3 30.8 1.9 3.8 1.7 7.1 8 7.1h56l195.2 379.5z" p-id="2412" fill="#dbdbdb"></path></svg>