<?xml version="1.0" standalone="no"?><!DOCTYPE svg PUBLIC "-//W3C//DTD SVG 1.1//EN" "http://www.w3.org/Graphics/SVG/1.1/DTD/svg11.dtd"><svg t="1491799711012" class="icon" style="" viewBox="0 0 1024 1024" version="1.1" xmlns="http://www.w3.org/2000/svg" p-id="2397" xmlns:xlink="http://www.w3.org/1999/xlink" width="128" height="128"><defs><style type="text/css"></style></defs><path d="M766.957674 644.06159c-4.165268 0.785024-8.380987 1.458046-12.59267 2.037228l0-4.191502C758.510091 642.647942 762.699576 643.367379 766.957674 644.06159zM911.532221 531.542855c-22.151193 44.787728-52.01035 74.276572-86.198239 92.44614l-13.726817 2.754647c-133.904075-14.651087-218.760307-54.34625-252.206559-118.000784-32.105254-61.064359-5.878597-127.540135 2.31471-145.316182 285.123072-62.056234 321.738681-100.989581 321.624661-128.001261-0.045406-7.501114-3.216781-13.772224-8.008656-18.979817C1018.955364 272.623232 911.532221 531.542855 911.532221 531.542855zM826.607376 215.98447c-10.809717-3.286404-28.030799-6.110674-36.850713-6.94514-14.813541-1.41163-46.548482 1.807169-71.454321 7.408284 0 0 59.325804 13.055814 10.855124 35.925434-8.586829-32.313114-26.61816-69.580556-37.080772-86.431324C631.63995 68.655277 512.667472 16.481464 389.479275 16.481464c-210.774859 0-382.31568 171.424783-382.31568 382.293481 0 113.99797 49.69564 220.010492 136.750543 293.01468l0 235.864341 423.794805 92.958726L567.708943 842.753338l99.27726 0c48.168981 0 87.377792-39.257245 87.377792-87.49484L754.363995 641.906306c-18.098936-3.261179-35.158573-7.081359-51.200101-11.480721-82.331643-22.519488-137.443746-59.718316-164.363605-111.103069-42.961387-82.009763 2.846468-167.953727 4.813064-171.56302l2.523579-4.652628 5.183377-1.11094c59.788948-12.939776 111.429994-25.460805 154.551816-37.543915 9.076207-2.52257 17.755866-5.023951 26.064203-7.522304 29.097342-8.727084 53.563245-17.174666 73.258463-25.321559 54.420918-22.4761 55.000101-35.554112 55.000101-36.087888C860.169666 229.963545 844.3138 221.354518 826.607376 215.98447zM59.754136 423.310471c-0.555974-8.14891-1.342007-16.273604-1.342007-24.49012 0-8.795697 0.671004-17.382526 1.342007-25.923948l6.018852-38.19272c46.223575 16.040519 166.702532 54.718582 275.88542 63.307428-8.031863 17.636801-12.499839 37.266433-12.499839 57.914173 0 32.333295 10.947954 62.10164 29.349599 85.805727-60.412527-9.885448-119.851342-26.551564-170.058559-43.285285-58.584168-19.535792-104.554477-39.164414-124.828877-48.192188L59.754136 423.310471zM703.163894 648.157235l0 107.14667c0 19.975728-16.270577 36.203926-36.177691 36.203926L516.509851 791.507831l0 165.473536-321.347179-70.502807L195.162672 667.138061l-9.813807-7.685767c-51.363563-40.320761-88.745025-93.511674-109.138491-153.275396 76.177581 31.686508 238.181069 90.919481 384.538569 90.919481 11.458522 0 22.799998-0.371322 34.002227-1.134148l11.989271 0C562.248083 620.613796 633.771018 645.147304 703.163894 648.157235zM549.192269 296.02562c-16.571268 2.731439-44.302385 9.351672-74.440035 19.858681l-5.555708 0c-36.918318 0-70.480609 14.281783-95.502486 37.638764-110.710557-2.385342-251.581971-48.286028-296.44033-63.884592 45.204456-129.021389 167.951709-221.979106 312.225565-221.979106 108.235411 0 218.297163 43.631382 264.683191 133.071627 7.269038 14.026499 16.757938 43.353899 28.101431 67.890434C651.848764 276.97517 608.958009 286.164389 549.192269 296.02562z" p-id="2398" class="selected" fill="#1296db"></path></svg>