<?xml version="1.0" standalone="no"?><!DOCTYPE svg PUBLIC "-//W3C//DTD SVG 1.1//EN" "http://www.w3.org/Graphics/SVG/1.1/DTD/svg11.dtd"><svg t="1492071736504" class="icon" style="" viewBox="0 0 1000 1000" version="1.1" xmlns="http://www.w3.org/2000/svg" p-id="2374" xmlns:xlink="http://www.w3.org/1999/xlink" width="100" height="100"><defs><style type="text/css"></style></defs><path d="M675.6678 340.3392c11.3895 0 22.6577 0.8194 33.8349 2.0948C679.0991 200.8426 527.7585 95.6978 355.0055 95.6978 161.8732 95.6978 3.6687 227.3262 3.6687 394.4892c0 96.491 52.6341 175.7294 140.5907 237.2004l-35.1414 105.6919 122.8233-61.5935c43.949 8.685 79.2103 17.6162 123.0643 17.6162 11.0247 0 21.9607-0.5471 32.8006-1.3978-6.8627-23.4757-10.8411-48.0769-10.8411-73.6199C376.965 464.8914 508.7769 340.3392 675.6678 340.3392zM486.7587 245.0635c26.4538 0 43.9777 17.4325 43.9777 43.8561 0 26.3312-17.5239 43.9786-43.9777 43.9786-26.3314 0-52.7552-17.6474-52.7552-43.9786C434.0022 262.4961 460.4273 245.0635 486.7587 245.0635zM240.8699 332.8982c-26.3314 0-52.9076-17.6474-52.9076-43.9786 0-26.4236 26.5775-43.8561 52.9076-43.8561 26.3314 0 43.8553 17.4325 43.8553 43.8561C284.7252 315.2508 267.2013 332.8982 240.8699 332.8982zM996.3313 614.1958c0-140.497-140.5595-254.9964-298.4305-254.9964-167.1644 0-298.8252 114.4994-298.8252 254.9964 0 140.6807 131.6608 254.9365 298.8252 254.9365 34.9878 0 70.2804-8.8075 105.4205-17.6149l96.3682 52.786-26.4251-87.8347C943.7872 763.5616 996.3313 693.4042 996.3313 614.1958zM601.0155 570.2185c-17.4951 0-35.1427-17.4026-35.1427-35.1699 0-17.4925 17.6475-35.1086 35.1427-35.1086 26.5725 0 43.9777 17.6162 43.9777 35.1086C644.9932 552.816 627.5893 570.2185 601.0155 570.2185zM794.269 570.2185c-17.3727 0-34.8979-17.4026-34.8979-35.1699 0-17.4925 17.5239-35.1086 34.8979-35.1086 26.3327 0 43.9777 17.6162 43.9777 35.1086C838.2467 552.816 820.6017 570.2185 794.269 570.2185z" p-id="2375" class="selected" fill="#ffffff"></path></svg>