<?xml version="1.0" standalone="no"?><!DOCTYPE svg PUBLIC "-//W3C//DTD SVG 1.1//EN" "http://www.w3.org/Graphics/SVG/1.1/DTD/svg11.dtd"><svg t="1492097142101" class="icon" style="" viewBox="0 0 1029 1024" version="1.1" xmlns="http://www.w3.org/2000/svg" p-id="1760" xmlns:xlink="http://www.w3.org/1999/xlink" width="48.234375" height="48"><defs><style type="text/css"></style></defs><path d="M1006.658 408.933c12.193-41.286 10.020-80.395-2.909-116.275-16.977-35.468-40.662-68.113-71.070-97.927-32.644-28.878-70.202-54.396-112.671-76.554-44.274-22.699-89.853-40.967-136.738-54.815-86.556-25.561-172.992-38.268-258.866-39.588-89.922-0.91-170.261 12.236-242.837 38.885-28.661 10.77-57.337 21.539-85.068 35.79-31.345 13.188-49.564 35.050-57.403 61.593-4.784 16.219-1.93 33.094 10.382 51.154 10.075 19.006 28.171 30.761 49.806 37.15 28.852 8.521 51.365 11.965 67.965 8.853 14.368-2.167 26.427-9.826 37.125-19.491 4.909-3.353 8.459-8.721 13.804-13.552l12.436-15.561c6.66-9.255 15.548-19.457 30.289-29.524 18.777-10.485 44.775-18.837 81.152-22.518 32.336-3.277 69.646-3.478 108.324-1.675 38.677 1.806 76.489 6.561 114.294 11.317 36.933 7.701 68.46 13.804 95.513 21.795 25.247 7.458 51.426 18.395 75.799 28.796 23.942 11.883 47.011 26.705 66.035 41.948 17.22 14.701 29.968 31.29 40.037 50.293 6.47 17.937 8.020 39.238 1.925 59.876-6.965 23.588-23.443 39.561-45.836 48.981-22.388 9.418-49.747 15.763-79.841 18.096-32.336 3.271-64.238 5.069-95.269 3.922-35.072-0.745-64.736 0.11-90.352 0.562-26.051 1.925-50.309 4.373-71.388 9.375-23.317 5.938-45.275 13.879-64.049 24.358-36.692 18.020-63.932 37.226-83.957 58.557-22.265 22.285-36.379 50.171-45.961 82.604-2.61 8.846-5.222 17.694-5.103 30.55-1.68 12.332-1.554 25.191 2.61 37.642 1.925 13.387 8.325 24.901 16.97 35.468 8.209 12.039 19.965 18.713 37.988 24.041 23.45 6.922 47.26 5.942 72.327-5.888 22.388-9.418 38.428-23.915 43.655-41.609l3.047-10.318c-2.736-4.015-3.236-8.972-2.362-11.923-0.935-3.478 0.375-7.901 2.113-13.795 10.020-33.913 26.435-56.315 49.696-68.681 22.818-10.889 58.266-18.054 102.288-21.083 22.019-1.513 44.032-3.026 66.042-4.543 19.776-0.57 41.353-0.613 63.801-3.598 22.013-1.513 44.032-3.026 64.675-6.547 20.644-3.519 39.49-7.575 60.571-12.567 38.114-9.574 72.134-25.179 101.611-45.328 27.677-20.678 48.073-49.919 59.397-88.251zM409.825 942.774c6.533-22.116-0.869-43.538-21.755-65.737-21.77-19.257-44.837-34.080-70.083-41.537-16.23-4.791-33.325-6.638-48.621-7.95-19.347-0.905-35.511 0.734-52.114 3.846-17.040 4.591-30.469 10.235-40.734 18.429-12.498 9.131-19.589 19.86-23.513 33.131-6.097 20.644-0.062 40.053 19.026 61.725 19.088 21.665 42.156 36.498 67.403 43.947 14.422 4.265 31.526 6.111 50.427 8.485 17.539 0.37 35.511-0.734 52.114-3.846 16.601-3.11 30.039-8.763 44.336-17.361 10.26-8.194 19.158-18.386 23.513-33.131z" p-id="1761"></path></svg>